<svg width="1248" height="1248" viewBox="0 0 1248 1248" fill="none" xmlns="http://www.w3.org/2000/svg">
<path d="M624 1238C963.103 1238 1238 963.103 1238 624C1238 284.897 963.103 10 624 10C284.897 10 10 284.897 10 624C10 770.016 60.9689 904.127 146.086 1009.51L257.619 886.927C302.029 943.448 369.316 977.092 440.641 977.092C498.509 977.092 585.982 951.523 585.982 877.506C585.982 803.352 506.26 778.095 413.889 748.83C402.326 745.167 390.564 741.441 378.736 737.548C261.656 699.867 139.192 646.037 139.192 479.163C139.192 275.955 316.832 169.64 502.546 169.64C608.86 169.64 712.483 197.901 794.574 269.226L650.579 426.679C616.935 383.615 549.647 363.429 498.509 363.429C440.641 363.429 357.204 390.344 357.204 461.669C357.204 534.673 434.475 557.195 524.111 583.32C536.919 587.053 549.98 590.86 563.105 594.898C677.494 629.888 795.92 685.064 795.92 857.32C795.92 1073.99 622.318 1170.88 428.529 1170.88C393.844 1170.88 360.346 1168.07 328.097 1162.12C415.856 1210.48 516.715 1238 624 1238Z" fill="#0B0B23" stroke="white" stroke-width="20"/>
</svg>
