<svg width="1228" height="1228" viewBox="0 0 1228 1228" fill="none" xmlns="http://www.w3.org/2000/svg">
<path d="M614 1228C953.103 1228 1228 953.103 1228 614C1228 274.897 953.103 0 614 0C274.897 0 0 274.897 0 614C0 760.016 50.9689 894.127 136.086 999.512L247.619 876.927C292.029 933.448 359.316 967.092 430.641 967.092C488.509 967.092 575.982 941.523 575.982 867.506C575.982 793.352 496.26 768.095 403.889 738.83C392.326 735.167 380.564 731.441 368.736 727.548C251.656 689.867 129.192 636.037 129.192 469.163C129.192 265.955 306.832 159.64 492.546 159.64C598.86 159.64 702.483 187.901 784.574 259.226L640.579 416.679C606.935 373.615 539.647 353.429 488.509 353.429C430.641 353.429 347.204 380.344 347.204 451.669C347.204 524.673 424.475 547.195 514.111 573.32C526.919 577.053 539.98 580.86 553.105 584.898C667.494 619.888 785.92 675.064 785.92 847.32C785.92 1063.99 612.318 1160.88 418.529 1160.88C383.844 1160.88 350.346 1158.07 318.097 1152.12C405.856 1200.48 506.715 1228 614 1228Z" fill="white"/>
</svg>
